<svg width="374" height="390" viewBox="0 0 374 390" fill="none" xmlns="http://www.w3.org/2000/svg">
<mask id="mask0_48_989" style="mask-type:alpha" maskUnits="userSpaceOnUse" x="306" y="0" width="68" height="127">
<rect x="306" width="68" height="127" fill="#C4C4C4"/>
</mask>
<g mask="url(#mask0_48_989)">
<path d="M377.803 106.077L421.808 121.042H358.67L350.575 120.159L346.651 117.706L360.044 106.077H377.803Z" fill="#172B4D"/>
<path d="M372.014 78.601V76.2459C372.014 76.2459 366.863 66.0403 366.127 65.9422C365.391 65.8441 305.54 40.9189 305.54 40.9189L328.352 85.3229L337.379 94.9397L372.014 78.601Z" fill="white" stroke="#36B37E" stroke-width="0.598795" stroke-miterlimit="10"/>
<mask id="mask1_48_989" style="mask-type:alpha" maskUnits="userSpaceOnUse" x="305" y="40" width="68" height="56">
<path d="M372.197 78.8676V76.5125C372.197 76.5125 367.046 66.3069 366.31 66.2088C365.574 66.1107 305.723 41.1855 305.723 41.1855L328.535 85.5895L337.562 95.2063L372.197 78.8676Z" fill="white" stroke="#36B37E" stroke-width="0.598795" stroke-miterlimit="10"/>
</mask>
<g mask="url(#mask1_48_989)">
<path d="M347.043 67.0712L339.537 67.3165L336.103 61.2324L328.891 61.5759L332.276 67.5128L325.114 67.7581L328.45 73.7931L335.661 73.6459L343.118 73.4496L346.749 79.73L354.451 79.6809L358.277 86.1575H366.372L362.398 79.5828L358.523 73.1062L350.722 73.3025L347.043 67.0712Z" fill="#C5E9DA"/>
<path d="M343.462 60.9371L339.929 54.9512L332.669 55.3437L336.103 61.2315L343.462 60.9371Z" fill="#36B37E"/>
<path d="M354.745 66.7769L351.017 60.5947L343.462 60.9382L347.043 67.0713L354.745 66.7769Z" fill="#36B37E"/>
<path d="M358.768 60.2503L354.99 54.1172L347.386 54.5097L351.017 60.5938L358.768 60.2503Z" fill="#36B37E"/>
<path d="M362.643 66.531L354.745 66.7764L358.523 73.1058L366.568 72.9586L374.81 72.7623L370.738 66.2857L366.764 59.9072L358.768 60.2507L362.643 66.531Z" fill="#36B37E"/>
<path d="M321.876 61.8703L328.891 61.5759L325.604 55.6881L332.669 55.3446L329.333 49.5059L322.367 49.9474L315.547 50.389L318.687 56.0806L311.917 56.424L305.343 56.7675L308.336 62.4591L315.008 62.1647L318.148 68.0034L325.114 67.7581L321.876 61.8703Z" fill="#172B4D"/>
<path d="M311.377 68.1992L314.468 74.087L321.385 73.9398L318.148 68.0029L311.377 68.1992Z" fill="#36B37E"/>
<path d="M305.932 45.2856L308.876 50.8299L315.547 50.3883L312.457 44.7949L305.932 45.2856Z" fill="#36B37E"/>
<path d="M339.929 54.9516L347.386 54.51L343.805 48.5731L340.322 42.7344L333.11 43.2741L326.046 43.8138L329.333 49.5054L336.495 49.0638L339.929 54.9516Z" fill="#36B37E"/>
<path d="M359.013 47.5918L351.311 48.0824L354.99 54.1175L362.84 53.7249L359.013 47.5918Z" fill="#36B37E"/>
<path d="M374.908 59.5635L370.885 53.2832L362.84 53.7248L366.764 59.907L374.908 59.5635Z" fill="#36B37E"/>
<path d="M321.385 73.9392L324.672 80.0233L331.835 79.9251L328.45 73.792L321.385 73.9392Z" fill="#36B37E"/>
</g>
<path d="M358.67 77.0303L331.197 82.9181L330.511 84.7335L336.643 93.1236L358.67 77.0303Z" fill="#172B4D"/>
<path d="M382.12 84.5377L376.576 79.8274L367.991 73.3018L346.258 82.0354L345.277 87.2853L350.575 94.7923L382.12 84.5377Z" fill="white" stroke="#36B37E" stroke-width="0.598795" stroke-miterlimit="10"/>
<path d="M370.984 88.1189L387.026 82.918L377.803 106.077L364.557 106.911L370.984 88.1189Z" fill="white" stroke="#36B37E" stroke-width="0.598795" stroke-miterlimit="10"/>
<path d="M353.764 93.6635L350.575 94.792L349.104 115.743L350.575 120.159L364.557 106.911L370.984 88.1191L353.764 93.6635Z" fill="white" stroke="#36B37E" stroke-width="0.598795" stroke-miterlimit="10"/>
<path d="M396.69 79.8271L424.408 94.792L353.764 93.6635L396.69 79.8271Z" fill="#C5E9DA" stroke="#36B37E" stroke-width="0.598795" stroke-miterlimit="10"/>
<path d="M350.575 94.7922V91.3576L328.352 60.79L325.408 65.4512L346.651 117.706L349.104 115.743L350.575 94.7922Z" fill="white" stroke="#36B37E" stroke-width="0.598795" stroke-miterlimit="10"/>
<path d="M328.352 60.7898L325.408 65.4509L315.499 74.6752L323.348 58.8271L328.352 60.7898Z" fill="white" stroke="#36B37E" stroke-width="0.598795" stroke-miterlimit="10"/>
<path d="M381.335 97.1477L353.764 93.6641L382.561 94.1547L381.335 97.1477Z" fill="#172B4D"/>
<path d="M356.757 92.731L347.141 84.7334L346.749 86.1072L350.575 91.3572V94.7918L356.757 92.731Z" fill="#172B4D"/>
<path d="M344.59 112.701L342.334 115.498L339.39 112.701L324.035 66.7759L325.409 65.4512L344.59 112.701Z" fill="#C5E9DA" stroke="#36B37E" stroke-width="0.598795" stroke-miterlimit="10"/>
</g>
<g clip-path="url(#clip0_48_989)">
<path d="M-35.2046 382.247L65.5333 380.945L26.4966 370.205L30.8965 360.898L55.8637 357.472L49.4684 355.989L32.2779 355.222L-35.2046 382.247Z" fill="#172B4D"/>
<path d="M20.5105 334.716L17.4407 334.767L-8.08918 325.255L20.7663 341.619L25.4732 337.733L20.5105 334.716Z" fill="#36B37E"/>
<path d="M20.5107 334.715L70.1892 325.612L45.3755 349.699L20.5107 334.715Z" fill="#172B4D"/>
<path d="M-8.08918 325.255L41.4869 353.432L30.3336 355.478L3.01301 357.472L-8.08918 325.255Z" fill="white" stroke="#36B37E" stroke-width="0.633632" stroke-miterlimit="10" stroke-linejoin="round"/>
<path d="M41.4871 353.432L70.189 325.612L49.4684 355.989L41.4871 353.432Z" fill="white" stroke="#36B37E" stroke-width="0.633632" stroke-miterlimit="10" stroke-linejoin="round"/>
<path d="M20.7665 341.619L33.6083 331.033L34.9385 332.107L30.8967 347.398L20.7665 341.619Z" fill="white" stroke="#36B37E" stroke-width="0.633632" stroke-miterlimit="10" stroke-linejoin="round"/>
<path d="M34.9383 332.107L46.5521 348.574L41.4871 353.432L30.8965 347.398L34.9383 332.107Z" fill="white" stroke="#36B37E" stroke-width="0.633632" stroke-miterlimit="10" stroke-linejoin="round"/>
<path d="M49.4685 355.989L30.3339 355.477L41.4872 353.432L49.4685 355.989Z" fill="white" stroke="#36B37E" stroke-width="0.633632" stroke-miterlimit="10" stroke-linejoin="round"/>
<path d="M-16.6331 348.113L47.6265 325.612L19.6408 362.688L-16.6331 348.113Z" fill="#C5E9DA" stroke="#36B37E" stroke-width="0.633632" stroke-miterlimit="10"/>
<path d="M-56.7443 341.567L15.3431 368.415L0.864263 373.529L-35.1539 381.865L-56.7443 341.567Z" fill="white" stroke="#36B37E" stroke-width="0.633632" stroke-miterlimit="10" stroke-linejoin="round"/>
<path d="M15.3431 368.416L47.6264 325.612L26.4964 370.205L15.3431 368.416Z" fill="white" stroke="#36B37E" stroke-width="0.633632" stroke-miterlimit="10" stroke-linejoin="round"/>
<path d="M-14.7914 357.217L0.0967395 340.494L2.09206 341.568L-0.0567445 362.688L-14.7914 357.217Z" fill="#36B37E"/>
<path d="M2.09206 341.567L20.9709 360.949L15.343 368.415L-0.0567474 362.688L2.09206 341.567Z" fill="white" stroke="#36B37E" stroke-width="0.633632" stroke-miterlimit="10" stroke-linejoin="round"/>
<path d="M26.4964 370.205L0.864197 373.529L15.3431 368.415L26.4964 370.205Z" fill="white" stroke="#36B37E" stroke-width="0.633632" stroke-miterlimit="10" stroke-linejoin="round"/>
<mask id="mask2_48_989" style="mask-type:alpha" maskUnits="userSpaceOnUse" x="-58" y="341" width="74" height="41">
<path d="M-56.8336 341.759L15.2077 368.309L0.941377 373.223L-35.0768 381.558L-56.8336 341.759Z" fill="white" stroke="#36B37E" stroke-width="0.633632" stroke-miterlimit="10" stroke-linejoin="round"/>
</mask>
<g mask="url(#mask2_48_989)">
<path d="M-13.4611 369.489L-21.2889 369.745L-24.9214 363.455L-32.4423 363.762L-28.9121 370.001L-36.3306 370.205L-32.9027 376.496L-25.3307 376.342L-17.6052 376.138L-13.8192 382.734L-5.73563 382.632L-1.74498 389.383H6.64561L2.55264 382.53L-1.48917 375.831L-9.67511 375.984L-13.4611 369.489Z" fill="#C5E9DA"/>
<path d="M2.75744 368.927L-5.47966 369.234L-1.48902 375.831L6.85041 375.626L15.4457 375.421L11.1992 368.671L7.05506 362.074L-1.23321 362.432L2.75744 368.927Z" fill="#36B37E"/>
<path d="M-0.977466 349.238L-9.00992 349.75L-5.17276 355.989L3.01318 355.58L-0.977466 349.238Z" fill="#36B37E"/>
<path d="M15.5991 361.665L11.3526 355.119L3.01319 355.579L7.05499 362.074L15.5991 361.665Z" fill="#36B37E"/>
</g>
</g>
<defs>
<clipPath id="clip0_48_989">
<rect width="127.445" height="64.3839" fill="white" transform="translate(-57 325)"/>
</clipPath>
</defs>
</svg>
